:FULLY-SPECIFIED
:FORCE-ALL-JOINTS-BE-3DOF
:DEGREES
849
root 3.74912 16.3838 27.9977 -6.46642 0.942295 -3.44059
lfemur -30.1128 0.617284 -13.4996
ltibia 39.0445 -0 0
lfoot -3.59826 -11.7559 0.0923398
ltoes -0.274173 0 0
rfemur -14.6313 -6.8967 4.2386
rtibia 79.8627 -0 0
rfoot 28.0285 16.4447 -0.367089
rtoes -23.9276 0 0
lowerback -0.172076 5.43849 0.657732
upperback -0.423396 7.2541 1.02369
thorax -0.35957 3.62847 0.775022
lowerneck -6.97534 -3.9248 3.38572
upperneck 10.297 -5.75644 1.38466
head 4.55435 -2.65543 -0.441391
lclavicle 2.62869e-14 -1.29305e-14 0
lhumerus -59.3673 -5.11292 91.0174
lradius 58.657 -0 0
lwrist 19.6891 0 0
lhand -4.71455 4.78745 -0.0497287
lfingers 7.12502 0 0
lthumb 23.9577 36.7176 -0.0174258
rclavicle 2.62869e-14 -1.29305e-14 0
rhumerus -39.9744 22.7392 -81.1949
rradius 59.271 -0 0
rwrist 8.23487 0 0
rhand -34.0521 -27.8954 -0.218208
rfingers 7.12502 0 0
rthumb -4.54471 -60.1808 -0.202125
850
root 3.76787 16.3995 28.0913 -6.2474 0.829441 -3.28779
lfemur -29.0236 0.599559 -13.0945
ltibia 37.8638 -0 0
lfoot -3.4016 -11.4313 0.0994488
ltoes -0.724881 0 0
rfemur -13.9273 -6.90853 3.87121
rtibia 78.5195 -0 0
rfoot 27.6819 16.2686 -0.517364
rtoes -23.1423 0 0
lowerback -0.277802 5.25832 0.603456
upperback -0.446562 7.01253 1.00705
thorax -0.336006 3.50707 0.782377
lowerneck -6.70766 -3.79549 3.25305
upperneck 10.003 -5.56499 1.31031
head 4.41242 -2.56676 -0.432713
lclavicle 2.58332e-14 -1.34038e-14 0
lhumerus -57.645 -4.9801 88.8822
lradius 56.7803 -0 0
lwrist 18.8689 0 0
lhand -4.57495 4.59109 -0.0463739
lfingers 7.12502 0 0
lthumb 22.9984 35.379 -0.0152328
rclavicle 2.58332e-14 -1.34038e-14 0
rhumerus -38.5183 22.5392 -78.7661
rradius 57.2671 -0 0
rwrist 8.05893 0 0
rhand -33.2709 -26.8688 -0.210145
rfingers 7.12502 0 0
rthumb -4.8193 -58.3174 -0.200295
851
root 3.78663 16.4153 28.1848 -6.00073 0.704823 -3.12845
lfemur -27.8557 0.583647 -12.6448
ltibia 36.5632 -0 0
lfoot -3.19919 -11.0469 0.105624
ltoes -1.19916 0 0
rfemur -13.1536 -6.92026 3.49821
rtibia 76.956 -0 0
rfoot 27.2698 16.0666 -0.674377
rtoes -22.3041 0 0
lowerback -0.390502 5.06656 0.550138
upperback -0.471134 6.75546 0.987909
thorax -0.309744 3.37793 0.786561
lowerneck -6.42124 -3.65512 3.11128
upperneck 9.67807 -5.35726 1.23181
head 4.25724 -2.47065 -0.422944
lclavicle 2.53794e-14 -1.3877e-14 0
lhumerus -55.7258 -4.82462 86.4111
lradius 54.6934 -0 0
lwrist 17.9873 0 0
lhand -4.42118 4.38533 -0.0419555
lfingers 7.12502 0 0
lthumb 21.9694 33.9261 -0.0127913
rclavicle 2.53794e-14 -1.3877e-14 0
rhumerus -36.9215 22.2745 -76.0171
rradius 55.0577 -0 0
rwrist 7.85094 0 0
rhand -32.4171 -25.7701 -0.19874
rfingers 7.12502 0 0
rthumb -5.1047 -56.2505 -0.195509
852
root 3.80538 16.431 28.2784 -5.7503 0.58597 -2.96874
lfemur -26.6677 0.572946 -12.1876
ltibia 35.2252 -0 0
lfoot -3.00143 -10.6454 0.111059
ltoes -1.66479 0 0
rfemur -12.385 -6.93403 3.13524
rtibia 75.2589 -0 0
rfoot 26.8273 15.8529 -0.833447
rtoes -21.4517 0 0
lowerback -0.497548 4.87076 0.496717
upperback -0.493615 6.49311 0.967122
thorax -0.283859 3.24623 0.789432
lowerneck -6.13353 -3.5129 2.96851
upperneck 9.34526 -5.14693 1.15451
head 4.09938 -2.37336 -0.412457
lclavicle 2.49256e-14 -1.43503e-14 0
lhumerus -53.7087 -4.65809 83.7111
lradius 52.5143 -0 0
lwrist 17.0992 0 0
lhand -4.25685 4.18157 -0.0368211
lfingers 7.12502 0 0
lthumb 20.9375 32.4431 -0.0103105
rclavicle 2.49256e-14 -1.43503e-14 0
rhumerus -35.2899 21.9275 -73.0662
rradius 52.7601 -0 0
rwrist 7.62593 0 0
rhand -31.5407 -24.6666 -0.185619
rfingers 7.12502 0 0
rthumb -5.38426 -54.0977 -0.188852
